<svg xmlns="http://www.w3.org/2000/svg" xmlns:xlink="http://www.w3.org/1999/xlink" version="1.1" x="0px" y="0px" viewBox="0 0 100 125" style="enable-background:new 0 0 100 100;" xml:space="preserve"><path d="M86,35l0.6-0.2l0-0.8c-0.3-6.5-4.6-11.6-6.8-13.8c0.1,0,0.1-0.1,0.1-0.1l0.8-0.6l-0.6-0.9c-5.5-8-12-12.2-18-14.4  c0,0-4.9-2.3-11.7-2.2c-6.8-0.2-11.7,2.2-11.7,2.2c-6,2.2-12.5,6.4-18,14.4l-0.6,0.9l0.8,0.6c0,0,0.1,0.1,0.1,0.1  c-2.2,2.2-6.5,7.3-6.8,13.8l0,0.8l0.6,0.2c-1.8,3.1-5.3,10.8-3.2,21l0.2,1.1l1.1-0.2c0.1,0,0.6-0.1,1.5-0.4  c0.3,3.2,1.5,10.4,6.3,16.7l0.5,0.7l0.8-0.3c0.1,0,1.1-0.5,2.5-1.5c0.8,3.2,3.3,9.6,10.4,13.4l0.5,0.3l0.5-0.3  c0.1,0,0.5-0.3,1.2-0.8c1.5,3.5,5.1,9.4,13.3,14.1l0.6,0.3l0.6-0.4c8.2-5.5,10.9-11.4,11.7-14.2c0.8,0.6,1.3,0.9,1.4,1l0.5,0.3  l0.5-0.3C73,81.6,75.5,75.2,76.3,72c1.4,1,2.4,1.5,2.5,1.5l0.8,0.3l0.5-0.7c4.9-6.3,6-13.5,6.3-16.7c0.9,0.3,1.4,0.4,1.5,0.4  l1.1,0.2l0.2-1.1C91.3,45.8,87.7,38,86,35z M87.5,52.5L84.7,49l1.1,4.8c-1.1-0.6-2.5-1.4-4.2-2.7c2.8-5.9,2.8-11.7,2.6-14.8  C85.5,38.8,88.2,44.8,87.5,52.5z M67.9,60.5l-1.7-8.6l-2.1,8.9c-0.4-0.4-5.9-6.4-8.4-10.3c1.7-1.2,3.1-2.4,4.3-3.6  c0.4-0.4,0.7-0.7,1.1-1.1l0,0c0.5-0.6,1-1.2,1.5-1.7c3.8,4.8,7.9,7.4,11.1,8.7C73.1,54.1,71.6,57.2,67.9,60.5z M36.7,60.7l-2.1-8.9  l-1.7,8.6c-2.3-2.1-3.7-4-4.5-5.4c-0.6-1-1-1.9-1.2-2.4c3.2-1.3,7.3-3.8,11.1-8.7c0.4,0.6,0.9,1.2,1.5,1.7l0,0  c0.3,0.4,0.7,0.7,1.1,1.1c1.2,1.2,2.6,2.4,4.3,3.6C42.5,54.3,37.1,60.3,36.7,60.7z M21.1,49.8c-2.9-6.2-2.4-12.4-2.1-14.5  c1.8-0.2,4.1-0.8,7.1-2.2c0.3,1,0.6,2.1,1,3.3l0.3,0.7l0.8,0c0,0,0,0,0.1,0c0.5,0,2.9-0.1,6.2-1.4c0.2,1.5,0.8,3.8,2.5,6.4  c-3.6,4.7-7.5,7.1-10.2,8.3c-0.8,0.4-1.6,0.6-2.3,0.9l1.8-8.6L21.1,49.8z M28.9,21.9c3,0,6.3-0.5,10-1.5c0.7,1.8,2,3.9,4.3,6.3  c-4.5,4.9-9,6.8-11.8,7.6l2.7-8.3l-5.8,6.4c-0.9-3.3-1-5.9-0.9-7.6c0.1-1.4,0.3-2.4,0.5-2.9C28.2,21.9,28.6,21.9,28.9,21.9z   M72.9,21.9c0.2,0.6,0.4,1.6,0.5,2.9c0.1,1.7,0,4.3-0.9,7.6l-5.8-6.4l2.7,8.3c-2.9-0.8-7.4-2.7-11.8-7.6c2.2-2.4,3.5-4.6,4.3-6.3  c3.7,1,7.1,1.5,10,1.5C72.2,21.9,72.6,21.9,72.9,21.9z M62.6,39.7c-1.2,2.3-2.8,4.3-4.7,6c-1.6,1.5-3.5,2.9-5.5,4.2l-2-9.1l-2,9.1  c-2-1.3-3.9-2.7-5.5-4.2c-1.8-1.7-3.5-3.7-4.7-6c-1.2-2.3-1.5-4.1-1.6-5c2.5-1.3,5.3-3.3,8.2-6.4c1.4,1.3,3,2.6,5,4l0.6,0.5l0.6-0.5  c2-1.4,3.6-2.7,5-4c2.8,3.1,5.7,5.1,8.2,6.4C64.1,35.6,63.8,37.4,62.6,39.7z M52.4,70.2l-2-9.3l-2,9.3c-5.7-4.2-7.4-8.1-7.9-10  c1.8-1.9,4-4.6,6.5-8.4c0.9,0.6,1.9,1.2,3,1.7l0.5,0.3l0.5-0.3c1.1-0.6,2-1.2,3-1.7c2.5,3.8,4.7,6.5,6.5,8.4  C59.8,62.1,58.1,66,52.4,70.2z M63.8,42.1c1.6-2.7,2.2-5,2.5-6.4c3.3,1.3,5.8,1.4,6.2,1.4c0,0,0.1,0,0.1,0l0.8,0l0.3-0.7  c0.4-1.2,0.8-2.3,1-3.3c3,1.4,5.4,2,7.1,2.2c0.3,2.1,0.8,8.3-2.1,14.5l-5.2-7.1l1.8,8.6C73.2,50.3,68.3,48,63.8,42.1z M83.8,31.1  L80,27.6l2.6,5.5c-1.6-0.1-4.1-0.7-7.5-2.3c0.9-4.4,0.4-7.5,0-9.2c0.1,0,0.2,0,0.3,0c0.8-0.1,1.5-0.3,2.1-0.5  C78.9,22.4,82.5,26.2,83.8,31.1z M47.7,4.4c0.9-0.1,1.8-0.1,2.7-0.2c0.8,0,1.7,0.1,2.6,0.1c9.3,0.9,17,5.1,23.1,12.5l-4.7-1.5  l4.7,3.9c-2.4,0.6-6.6,0.9-13.4-0.9c1-2.8,0.9-4.7,0.9-4.8L62,13.6c-0.3-0.6-0.7-1.2-1.1-1.8c0,0,0,2.1-0.2,4c0,0,0,1.1-0.6,3  c-1.1,2.5-3.3,6-7.8,9.7l-1.9-8.7l-1.9,8.7c-4.5-3.7-6.7-7.3-7.8-9.7c0,0,0,0,0,0c-0.3-0.8-0.4-1.4-0.5-1.9l0,0c0,0,0,0,0,0  c-0.1-0.7-0.1-1.1-0.1-1.1c-0.2-1.9-0.2-4.1-0.2-4.1c-0.5,0.5-0.9,1.2-1.1,1.8l-0.4,0l-1.1-0.1c0,0.2-0.1,2,0.9,4.8  c-6.8,1.7-11.1,1.4-13.4,0.9l4.7-3.9l-4.7,1.5C30.8,9.5,38.5,5.3,47.7,4.4z M25.4,21.6c0.1,0,0.2,0,0.3,0c-0.4,1.7-0.9,4.7,0,9.2  c-3.4,1.6-5.9,2.1-7.5,2.3l2.6-5.5L17,31.1c1.3-4.9,5-8.7,6.2-9.9C23.8,21.3,24.5,21.5,25.4,21.6z M16.7,36.3  c-0.3,3.1-0.3,8.9,2.6,14.8c-1.7,1.3-3.1,2.2-4.2,2.7l1.1-4.8l-2.7,3.5C12.6,44.8,15.3,38.9,16.7,36.3z M20.3,53  c0.1,0.2,0.2,0.4,0.3,0.6l0.3,0.5l0.6,0c0.1,0,1.5-0.1,3.5-0.7c0.6,1.5,1.9,4.4,5,7.5c-1.7,4.3-4.1,6.9-6,8.5l-0.8-9.4l-3.1,8.5  c-3.1-5.6-3.7-11.2-3.8-13.1C17.6,54.9,18.9,54.1,20.3,53z M26.5,70.4c1.8-1.7,3.8-4.2,5.4-7.8c0.7,0.6,1.4,1.2,2.2,1.7l0.5,0.4  l0.6-0.2c0.1,0,1.3-0.5,3.4-2.4c0.6,1.9,2.1,4.8,5.5,7.8c-1.3,5-3.6,8.4-5.4,10.4c-0.4,0.5-0.8,0.9-1.2,1.2l-0.1,0L35,72.7l-1.5,9.1  C28.3,77.9,26.8,72.2,26.5,70.4z M52.6,95.1l-1.7-9l-2.2,8.9C42.7,90.6,40,85.6,39,83c2.2-2.1,5.1-5.9,6.9-11.7  c1.1,0.8,2.5,1.7,4,2.5l0.5,0.3l0,0l0,0l0.5-0.3c1.5-0.8,2.8-1.6,4-2.5c1.7,5.6,4.4,9.2,6.6,11.4c-0.1,0.5-0.5,2.2-1.7,4.3  C58.6,89.2,56.4,92.1,52.6,95.1z M67.3,81.8l-1.5-9.1l-2.4,8.8c-2.1-2-5-5.7-6.6-11.7c3.4-3,4.9-5.9,5.5-7.8  c2.1,1.9,3.3,2.4,3.4,2.4l0.6,0.2l0.5-0.4c0.8-0.6,1.5-1.2,2.2-1.7c1.6,3.6,3.6,6.1,5.4,7.8C74,72.2,72.6,77.9,67.3,81.8z   M80.5,68.6l-3.1-8.5l-0.8,9.4c-0.1-0.1-0.2-0.2-0.4-0.3c-1.6-1.5-3.9-4.1-5.6-8.2c3.1-3.2,4.5-6,5-7.5c2,0.6,3.3,0.7,3.5,0.7l0.6,0  l0.3-0.5c0.1-0.2,0.2-0.4,0.3-0.6c1.4,1.1,2.7,1.9,3.8,2.4C84.2,57.3,83.6,63,80.5,68.6z"/><text x="0" y="115" fill="#000000" font-size="5px" font-weight="bold" font-family="'Helvetica Neue', Helvetica, Arial-Unicode, Arial, Sans-serif">Created by Mr bOZO</text><text x="0" y="120" fill="#000000" font-size="5px" font-weight="bold" font-family="'Helvetica Neue', Helvetica, Arial-Unicode, Arial, Sans-serif">from the Noun Project</text></svg>