<svg xmlns="http://www.w3.org/2000/svg" xmlns:xlink="http://www.w3.org/1999/xlink" version="1.1" x="0px" y="0px" viewBox="0 0 100 125" style="enable-background:new 0 0 100 100;" xml:space="preserve"><g><path d="M35.4,44.2c0,0,1,1.4,2.3,2.1c1.4,0.6,2.6,0.6,2.6,0.6c0,0-0.9-1.7-2.3-2.3C36.6,44,35.4,44.2,35.4,44.2z"/><path d="M40.6,43.4c-0.4,1.5,0,3.4,0,3.4c0,0,1-0.8,1.5-2.3c0.5-1.5-0.1-3.5-0.2-3.5C41.9,41,41,41.9,40.6,43.4z"/><path d="M38.7,41.3c-1-1.9-2.4-2.9-2.4-2.9c0,0,0.4,1.7,1.3,3.5c0.9,1.8,2.1,3.1,2.1,3.1C39.7,45,39.7,43.2,38.7,41.3z"/><path d="M38.8,49.2c1.3,0.7,2.5,0.8,2.5,0.8c0,0-0.8-1.8-2.1-2.5c-1.3-0.7-2.6-0.6-2.5-0.6C36.6,47,37.5,48.5,38.8,49.2z"/><path d="M41.9,46.6c-0.6,1.5-0.3,3.3-0.3,3.3c0,0,1-0.7,1.6-2.2c0.6-1.5,0.1-3.5,0.1-3.5C43.3,44.3,42.4,45.2,41.9,46.6z"/><path d="M39.6,52.3c1.2,0.8,2.4,1,2.4,1c0,0-0.6-1.8-1.9-2.6c-1.3-0.8-2.5-0.8-2.5-0.8C37.6,49.9,38.4,51.5,39.6,52.3z"/><path d="M42.4,53.3c0,0,1.1-0.6,1.8-2c0.7-1.4,0.4-3.5,0.4-3.5c0,0-1,0.8-1.6,2.2C42.2,51.4,42.3,53.2,42.4,53.3z"/><path d="M40.2,55.4c1.2,0.9,2.4,1.2,2.3,1.2c0,0-0.5-1.8-1.7-2.7c-1.2-0.9-2.4-1-2.4-1C38.4,52.9,39,54.5,40.2,55.4z"/><path d="M44.8,54.7c0.8-1.4,0.7-3.4,0.7-3.4c0,0-1,0.7-1.8,2c-0.8,1.4-0.8,3.2-0.8,3.2C42.8,56.6,44,56.1,44.8,54.7z"/><path d="M40.6,58.5c1.1,1,2.3,1.4,2.2,1.4c0,0-0.3-1.9-1.5-2.9c-1.1-1-2.3-1.2-2.3-1.2C39,55.9,39.5,57.5,40.6,58.5z"/><path d="M44.2,56.8c-0.9,1.3-1.1,3.1-1.1,3.2c0,0,1.1-0.4,2.1-1.7c1-1.3,1-3.3,0.9-3.4C46.1,54.9,45.1,55.5,44.2,56.8z"/><path d="M40.7,61.7c1,1.1,2.1,1.5,2.1,1.6c0,0-0.2-1.9-1.3-3c-1.1-1.1-2.2-1.3-2.2-1.4C39.3,58.9,39.7,60.6,40.7,61.7z"/><path d="M44.4,60.2c-1,1.2-1.3,3.1-1.3,3.1c0,0,1.2-0.3,2.2-1.5c1-1.2,1.2-3.3,1.2-3.3C46.5,58.5,45.4,59,44.4,60.2z"/><path d="M41.5,63.5c-1-1.2-2.1-1.5-2.1-1.5c0,0,0.2,1.7,1.1,2.9c0.9,1.2,2,1.7,2,1.7C42.5,66.6,42.5,64.7,41.5,63.5z"/><path d="M46.6,62.1c0,0-1.1,0.4-2.2,1.6c-1.1,1.1-1.5,2.9-1.5,3c0,0,1.2-0.2,2.3-1.4C46.3,64.1,46.6,62.1,46.6,62.1z"/><path d="M42,69.9c0,0,0.1-1.9-0.8-3.2c-0.9-1.2-2-1.7-2-1.7c0,0,0.1,1.7,0.9,3C41,69.2,42,69.9,42,69.9z"/><path d="M46.4,65.7c0,0-1.2,0.3-2.3,1.4c-1.2,1.1-1.8,2.8-1.8,2.8c0,0,1.2-0.2,2.4-1.2C45.9,67.7,46.4,65.7,46.4,65.7z"/><path d="M41.9,71c-0.2,0-0.4,0.2-0.4,0.4c-1.6,6.4-4.6,12.6-9.3,17.9C32,89.6,31.9,89.8,32,90c0.1,0.1,0.4,0,0.6-0.2   c4.7-5.4,7.8-11.6,9.4-18.2C42.1,71.3,42.1,71,41.9,71z"/><path d="M35.7,37.8c0.1,0.1,0.2,0.2,0.2,0.2c0.1,0,0.1-0.2,0-0.3c-1.5-3.2-4.6-5.1-6.9-7.8c-0.1-0.1-0.2-0.2-0.3-0.1   c-0.1,0.1,0,0.2,0.1,0.3C31.1,32.7,34.2,34.6,35.7,37.8z"/><path d="M34.9,43.5c0.1,0.2,0.2,0.3,0.2,0.2c0.1,0,0.1-0.2,0-0.4c-1.4-3.9-4.8-6.6-7.3-9.8c-0.1-0.1-0.3-0.2-0.3-0.2   c-0.1,0.1,0,0.2,0.1,0.4C30.2,37,33.5,39.7,34.9,43.5z"/><path d="M41.3,40.2c0.1,0.2,0.2,0.3,0.3,0.3c0.1,0,0.1-0.2,0-0.4c-1.8-4.5-5.5-7.8-8.7-11.6c-0.1-0.2-0.3-0.3-0.4-0.2   c-0.1,0.1,0,0.3,0.1,0.4C35.8,32.4,39.5,35.7,41.3,40.2z"/><path d="M34.4,69.5c-2.8-3.4-6.6-3-6.9-3.1c0.3,0.1,3.5,1.1,5.9,4.4c1.3,1.4,3,5.7,1.9,10.3c-0.7,4.1-3.7,8-4.1,8.5   c0.5-0.4,3.8-4.1,4.9-8.6C37.5,76,35.9,71,34.4,69.5z"/><path d="M27.7,66.2C27.7,66.2,27.7,66.2,27.7,66.2C27.7,66.2,27.7,66.2,27.7,66.2z"/><path d="M31.4,89.3C31.4,89.3,31.4,89.3,31.4,89.3C31.4,89.3,31.4,89.3,31.4,89.3z"/><path d="M43.6,29.3c0,0,1.2,1.7,2.8,2.5c1.6,0.8,3.1,0.8,3.1,0.8c0,0-1.1-2.1-2.8-2.8C45,29.1,43.5,29.3,43.6,29.3z"/><path d="M49.8,32.5c0,0,1.2-0.9,1.8-2.8c0.6-1.8-0.2-4.3-0.2-4.3c0,0-1,1.1-1.5,2.9C49.3,30.2,49.8,32.5,49.8,32.5z"/><path d="M47.6,25.9c-1.2-2.3-3-3.6-2.9-3.6c0,0,0.5,2.1,1.6,4.3c1.1,2.2,2.6,3.7,2.6,3.7C48.8,30.3,48.7,28.1,47.6,25.9z"/><path d="M47.7,35.5c1.6,0.9,3,1,3,1c0,0-0.9-2.1-2.6-3c-1.6-0.9-3.1-0.7-3.1-0.7C45.1,32.8,46.1,34.6,47.7,35.5z"/><path d="M51.1,36.4c0,0,1.2-0.8,2-2.6c0.8-1.8,0.2-4.2,0.1-4.2c0,0-1.1,1-1.8,2.8C50.8,34.1,51.1,36.4,51.1,36.4z"/><path d="M48.7,39.2c1.5,1,3,1.2,2.9,1.2c0,0-0.8-2.2-2.3-3.2c-1.5-1-3-1-3-1C46.3,36.3,47.2,38.2,48.7,39.2z"/><path d="M52,40.3c0,0,1.3-0.7,2.2-2.4c0.9-1.7,0.5-4.2,0.5-4.2c0,0-1.2,0.9-2,2.6C51.9,38.1,52,40.3,52,40.3z"/><path d="M49.4,42.9c1.4,1.1,2.8,1.4,2.8,1.5c0,0-0.6-2.2-2.1-3.3c-1.5-1.1-2.9-1.2-2.9-1.2C47.3,39.9,48,41.8,49.4,42.9z"/><path d="M52.6,44.3c0,0,1.3-0.6,2.4-2.3c1-1.6,0.8-4.1,0.8-4.1c0,0-1.2,0.8-2.2,2.5C52.7,42.1,52.6,44.3,52.6,44.3z"/><path d="M49.8,46.7c1.3,1.2,2.7,1.7,2.7,1.7c0,0-0.4-2.3-1.8-3.5c-1.4-1.2-2.8-1.4-2.8-1.4C47.9,43.5,48.5,45.5,49.8,46.7z"/><path d="M54.2,44.6c-1.1,1.6-1.3,3.8-1.3,3.8c0,0,1.4-0.5,2.5-2.1c1.2-1.5,1.2-4,1.1-4.1C56.6,42.3,55.3,43,54.2,44.6z"/><path d="M48.3,47.2c0,0,0.4,2,1.7,3.4c1.2,1.3,2.6,1.9,2.6,1.9c0,0-0.2-2.3-1.5-3.6C49.7,47.5,48.3,47.2,48.3,47.2z"/><path d="M54.5,48.7c-1.2,1.5-1.6,3.7-1.6,3.7c0,0,1.4-0.4,2.7-1.9c1.3-1.5,1.5-3.9,1.4-4C57,46.6,55.7,47.3,54.5,48.7z"/><path d="M52.2,56.4c0,0-0.1-2.3-1.2-3.7c-1.2-1.4-2.6-1.8-2.6-1.9c0,0,0.3,2.1,1.4,3.5C50.9,55.8,52.2,56.4,52.2,56.4z"/><path d="M54.4,52.9c-1.3,1.4-1.9,3.6-1.9,3.6c0,0,1.4-0.3,2.8-1.7c1.4-1.4,1.8-3.8,1.7-3.8C57.1,51,55.7,51.5,54.4,52.9z"/><path d="M51.6,60.4c0,0,0.1-2.3-0.9-3.8c-1.1-1.5-2.4-2-2.4-2c0,0,0.1,2.1,1.1,3.6C50.3,59.7,51.6,60.4,51.6,60.4z"/><path d="M56.9,55.4c0,0-1.4,0.4-2.8,1.7c-1.4,1.3-2.1,3.4-2.1,3.4c0,0,1.5-0.2,2.9-1.4C56.3,57.8,56.9,55.4,56.9,55.4z"/><path d="M51.4,61.8c-0.2,0-0.4,0.2-0.5,0.5c-1.9,7.8-5.6,15.2-11.2,21.6c-0.2,0.3-0.3,0.6-0.2,0.8c0.2,0.1,0.5,0,0.7-0.3   c5.7-6.5,9.5-14.1,11.4-22C51.7,62.1,51.6,61.8,51.4,61.8z"/><path d="M43.9,21.6c0.1,0.2,0.2,0.3,0.3,0.2c0.1-0.1,0.1-0.2,0-0.4c-1.8-3.8-5.6-6.2-8.3-9.5c-0.1-0.1-0.3-0.2-0.3-0.1   c-0.1,0.1,0,0.3,0.1,0.4C38.4,15.5,42.1,17.8,43.9,21.6z"/><path d="M43,28.5c0.1,0.2,0.2,0.3,0.3,0.3c0.1,0,0.1-0.3,0-0.5c-1.7-4.7-5.8-7.9-8.9-11.9c-0.1-0.2-0.3-0.3-0.4-0.2   c-0.1,0.1,0,0.3,0.1,0.5C37.3,20.6,41.3,23.9,43,28.5z"/><path d="M50.7,24.5c0.1,0.2,0.2,0.4,0.3,0.3c0.1,0,0.1-0.3,0-0.5c-2.2-5.5-6.7-9.5-10.5-14.1c-0.2-0.2-0.4-0.3-0.4-0.2   c-0.1,0.1,0,0.3,0.2,0.5C44.1,15.1,48.6,19.1,50.7,24.5z"/><path d="M65.5,56.4c-2.3-0.4-7.8,1.3-11.3,5.6c-3.4,3.7-4.5,9-4.6,9.7c0.1-0.7,1.7-5.8,5-9c3.5-3.8,8.3-4.9,10.4-4.6   c4.4,0.1,7.3,2.4,7.6,2.5C72.3,60.4,70.3,56.8,65.5,56.4z"/></g><text x="0" y="115" fill="#000000" font-size="5px" font-weight="bold" font-family="'Helvetica Neue', Helvetica, Arial-Unicode, Arial, Sans-serif">Created by Musmellow</text><text x="0" y="120" fill="#000000" font-size="5px" font-weight="bold" font-family="'Helvetica Neue', Helvetica, Arial-Unicode, Arial, Sans-serif">from the Noun Project</text></svg>